<svg id="svg" version="1.1" xmlns="http://www.w3.org/2000/svg" xmlns:xlink="http://www.w3.org/1999/xlink" width="400" height="400" viewBox="0, 0, 400,400"><g id="svgg"><path id="path0" d="M57.553 39.900 C 57.527 40.065,57.523 40.325,57.545 40.479 C 57.568 40.632,56.959 40.696,56.193 40.622 C 55.427 40.548,54.800 40.630,54.800 40.804 C 54.800 41.243,52.530 41.997,52.201 41.667 C 52.054 41.520,51.993 41.657,52.067 41.971 C 52.145 42.308,51.710 42.718,51.006 42.971 C 49.862 43.382,48.078 44.798,48.700 44.801 C 48.865 44.802,48.413 45.161,47.696 45.598 C 46.979 46.035,46.035 46.979,45.598 47.696 C 45.161 48.413,44.802 48.865,44.801 48.700 C 44.798 48.078,43.382 49.862,42.971 51.006 C 42.735 51.663,42.368 52.167,42.154 52.128 C 41.941 52.088,41.738 52.423,41.705 52.872 C 41.671 53.322,41.388 53.984,41.076 54.345 C 40.765 54.705,40.561 55.580,40.623 56.289 C 40.695 57.107,40.565 57.546,40.268 57.489 C 39.915 57.422,39.775 64.639,39.697 86.900 L 39.595 116.400 42.348 116.400 L 45.101 116.400 45.268 104.174 C 45.407 94.038,45.535 91.886,46.018 91.581 C 46.338 91.378,51.370 91.212,57.200 91.212 C 63.030 91.212,68.062 91.378,68.382 91.581 C 68.865 91.886,68.993 94.038,69.132 104.174 L 69.299 116.400 90.426 116.400 C 106.713 116.400,111.622 116.513,111.857 116.892 C 112.024 117.163,112.237 122.113,112.331 127.892 L 112.501 138.400 122.250 138.400 L 132.000 138.400 132.047 106.100 C 132.072 88.335,132.207 72.630,132.347 71.200 L 132.600 68.600 144.000 68.600 L 155.400 68.600 155.657 71.000 C 155.798 72.320,155.933 83.075,155.957 94.900 L 156.000 116.400 165.753 116.400 L 175.505 116.400 175.664 106.008 C 175.763 99.587,175.982 95.458,176.238 95.202 C 176.510 94.930,180.509 94.824,187.826 94.894 L 199.000 95.000 199.200 116.600 L 199.400 138.200 209.648 138.307 L 219.896 138.413 220.074 127.176 C 220.220 117.992,220.357 115.872,220.826 115.575 C 221.765 114.981,241.890 115.099,242.262 115.700 C 242.432 115.975,242.645 121.195,242.734 127.300 L 242.897 138.400 253.200 138.400 L 263.503 138.400 263.666 127.300 C 263.755 121.195,263.968 115.975,264.138 115.700 C 264.372 115.322,266.824 115.200,274.171 115.200 L 283.895 115.200 284.074 104.281 C 284.172 98.276,284.386 93.146,284.550 92.881 C 284.985 92.177,307.025 92.193,307.460 92.898 C 307.630 93.172,307.842 98.302,307.933 104.298 L 308.099 115.200 328.649 115.200 L 349.200 115.200 349.243 106.300 C 349.267 101.405,349.402 96.320,349.543 95.000 L 349.800 92.600 355.708 92.489 L 361.615 92.379 361.592 74.976 C 361.579 65.404,361.414 57.668,361.226 57.784 C 360.807 58.043,360.400 57.062,360.400 55.796 C 360.400 55.280,360.175 54.619,359.900 54.329 C 359.625 54.038,359.337 53.440,359.260 53.000 C 359.183 52.560,358.929 52.082,358.696 51.937 C 358.463 51.792,358.234 51.252,358.187 50.737 C 358.141 50.222,357.911 49.841,357.676 49.892 C 357.441 49.942,357.135 49.625,356.996 49.186 C 356.856 48.747,356.575 48.492,356.371 48.618 C 356.167 48.744,355.999 48.702,355.998 48.524 C 355.995 48.024,353.295 45.200,352.820 45.200 C 352.589 45.200,352.400 44.911,352.400 44.557 C 352.400 44.141,352.182 43.998,351.779 44.153 C 351.423 44.289,351.263 44.222,351.403 43.995 C 351.538 43.777,351.146 43.408,350.532 43.174 C 349.918 42.941,349.305 42.569,349.168 42.348 C 349.032 42.128,348.641 41.906,348.300 41.856 C 347.960 41.806,347.372 41.509,346.994 41.195 C 346.617 40.882,345.870 40.602,345.335 40.573 C 344.799 40.545,344.154 40.314,343.901 40.061 C 343.372 39.532,57.636 39.372,57.553 39.900 " stroke="none" fill="#64bc6c" fill-rule="evenodd"></path><path id="path1" d="M133.150 105.500 C 133.123 123.045,132.988 138.660,132.850 140.200 L 132.600 143.000 122.200 143.000 L 111.800 143.000 111.693 132.303 L 111.587 121.607 90.093 121.503 L 68.600 121.400 68.494 108.900 L 68.389 96.400 57.200 96.400 L 46.011 96.400 45.906 108.900 L 45.800 121.400 42.698 121.517 L 39.596 121.634 39.602 231.015 C 39.607 315.699,39.717 340.375,40.087 340.299 C 40.359 340.242,40.784 341.062,41.073 342.200 C 41.352 343.300,41.784 344.650,42.032 345.200 C 42.281 345.750,42.772 346.830,43.123 347.600 C 43.663 348.784,44.657 350.198,46.994 353.105 C 47.850 354.170,52.273 357.463,53.800 358.174 C 54.680 358.583,55.709 359.069,56.086 359.254 C 57.184 359.791,59.992 360.444,62.800 360.815 C 66.211 361.266,337.655 361.257,340.000 360.806 C 343.123 360.205,345.387 359.567,345.780 359.177 C 345.989 358.970,346.383 358.800,346.655 358.800 C 350.134 358.800,360.000 347.408,360.000 343.391 C 360.000 342.840,360.352 342.187,360.800 341.907 C 361.597 341.409,361.600 340.974,361.600 219.504 L 361.600 97.600 355.806 97.600 L 350.012 97.600 349.906 108.900 L 349.800 120.200 328.600 120.200 L 307.400 120.200 307.294 108.900 L 307.188 97.600 296.000 97.600 L 284.812 97.600 284.706 108.900 L 284.600 120.200 274.506 120.307 L 264.412 120.414 264.306 131.707 L 264.200 143.000 253.200 143.000 L 242.200 143.000 242.094 131.700 L 241.988 120.400 231.649 120.400 L 221.310 120.400 221.119 131.335 C 221.014 137.349,220.798 142.479,220.640 142.735 C 220.225 143.407,199.553 143.393,198.880 142.720 C 198.519 142.359,198.400 136.969,198.400 120.920 L 198.400 99.600 187.400 99.600 L 176.400 99.600 176.400 110.392 L 176.400 121.185 175.500 121.405 C 175.005 121.526,170.280 121.575,165.000 121.513 L 155.400 121.400 155.297 97.500 L 155.194 73.600 144.197 73.600 L 133.200 73.600 133.150 105.500 " stroke="none" fill="#6c4c3c" fill-rule="evenodd"></path><path id="path2" d="M132.527 68.894 C 132.347 69.172,132.145 84.925,132.078 103.900 L 131.955 138.400 122.228 138.400 L 112.501 138.400 112.331 127.892 C 112.237 122.113,112.024 117.163,111.857 116.892 C 111.622 116.513,106.713 116.400,90.426 116.400 L 69.299 116.400 69.132 104.174 C 68.993 94.038,68.865 91.886,68.382 91.581 C 67.622 91.100,46.778 91.100,46.018 91.581 C 45.535 91.886,45.407 94.038,45.268 104.174 L 45.101 116.400 42.351 116.400 L 39.600 116.400 39.600 118.600 L 39.600 120.800 42.600 120.800 L 45.600 120.800 45.600 108.680 C 45.600 99.787,45.728 96.432,46.080 96.080 C 46.764 95.396,67.636 95.396,68.320 96.080 C 68.672 96.432,68.800 99.786,68.800 108.677 L 68.800 120.793 90.300 120.897 L 111.800 121.000 112.045 130.800 C 112.180 136.190,112.315 141.098,112.345 141.707 L 112.400 142.814 122.300 142.707 L 132.200 142.600 132.302 108.238 C 132.375 83.659,132.532 73.723,132.851 73.338 C 133.575 72.467,155.021 72.557,155.357 73.433 C 155.491 73.781,155.600 84.581,155.600 97.433 L 155.600 120.800 165.600 120.800 L 175.600 120.800 175.655 119.900 C 175.685 119.405,175.820 114.590,175.955 109.200 L 176.200 99.400 187.151 99.293 C 195.125 99.216,198.257 99.315,198.672 99.660 C 199.157 100.062,199.224 99.749,199.121 97.566 L 199.000 95.000 187.826 94.894 C 180.509 94.824,176.510 94.930,176.238 95.202 C 175.982 95.458,175.763 99.587,175.664 106.008 L 175.505 116.400 165.753 116.400 L 156.000 116.400 155.957 94.900 C 155.933 83.075,155.798 72.320,155.657 71.000 L 155.400 68.600 144.127 68.494 C 135.381 68.411,132.781 68.501,132.527 68.894 M284.550 92.881 C 284.386 93.146,284.172 98.276,284.074 104.281 L 283.895 115.200 274.171 115.200 C 266.824 115.200,264.372 115.322,264.138 115.700 C 263.968 115.975,263.755 121.195,263.666 127.300 L 263.503 138.400 253.200 138.400 L 242.897 138.400 242.734 127.300 C 242.645 121.195,242.432 115.975,242.262 115.700 C 241.890 115.099,221.765 114.981,220.826 115.575 C 220.357 115.872,220.220 117.993,220.074 127.182 L 219.896 138.426 209.531 138.313 L 199.165 138.200 199.283 140.400 L 199.400 142.600 209.800 142.600 L 220.200 142.600 220.307 131.633 C 220.378 124.277,220.561 120.489,220.861 120.127 C 221.220 119.694,223.377 119.608,231.754 119.693 L 242.200 119.800 242.400 131.200 L 242.600 142.600 253.100 142.707 C 262.894 142.806,263.604 142.766,263.653 142.107 C 263.682 141.718,263.817 136.540,263.953 130.600 L 264.200 119.800 274.300 119.693 L 284.400 119.586 284.400 108.826 C 284.400 102.908,284.509 97.781,284.643 97.433 C 285.011 96.473,306.989 96.473,307.357 97.433 C 307.491 97.781,307.600 102.911,307.600 108.833 L 307.600 119.600 328.600 119.600 L 349.600 119.600 349.600 108.833 C 349.600 95.367,348.856 96.800,355.843 96.800 L 361.600 96.800 361.600 94.589 L 361.600 92.379 355.700 92.489 L 349.800 92.600 349.543 95.000 C 349.402 96.320,349.267 101.405,349.243 106.300 L 349.200 115.200 328.649 115.200 L 308.099 115.200 307.933 104.298 C 307.842 98.302,307.630 93.172,307.460 92.898 C 307.025 92.193,284.985 92.177,284.550 92.881 " stroke="none" fill="#64a464" fill-rule="evenodd"></path><path id="path3" d="M39.627 343.910 C 39.583 347.615,39.698 348.783,40.144 349.153 C 40.459 349.415,40.626 349.981,40.513 350.410 C 40.385 350.899,40.550 351.283,40.955 351.438 C 41.310 351.574,41.600 352.116,41.600 352.643 C 41.600 353.227,41.834 353.600,42.200 353.600 C 42.600 353.600,42.800 354.000,42.800 354.800 C 42.800 355.600,43.000 356.000,43.400 356.000 C 43.730 356.000,44.000 356.270,44.000 356.600 C 44.000 356.930,44.270 357.200,44.600 357.200 C 44.930 357.200,45.200 357.390,45.200 357.623 C 45.200 358.093,47.600 360.400,48.089 360.400 C 48.260 360.400,48.400 360.670,48.400 361.000 C 48.400 361.330,48.670 361.600,49.000 361.600 C 49.330 361.600,49.600 361.870,49.600 362.200 C 49.600 362.600,50.000 362.800,50.800 362.800 C 51.600 362.800,52.000 363.000,52.000 363.400 C 52.000 363.775,52.379 364.000,53.013 364.000 C 53.569 364.000,54.129 364.270,54.255 364.600 C 54.384 364.935,54.978 365.200,55.600 365.200 C 56.222 365.200,56.816 365.465,56.945 365.800 C 57.149 366.332,73.480 366.400,200.600 366.400 C 327.720 366.400,344.051 366.332,344.255 365.800 C 344.384 365.465,344.978 365.200,345.600 365.200 C 346.222 365.200,346.816 364.935,346.945 364.600 C 347.071 364.270,347.631 364.000,348.187 364.000 C 348.821 364.000,349.200 363.775,349.200 363.400 C 349.200 363.042,349.568 362.800,350.111 362.800 C 351.004 362.800,352.400 361.577,352.400 360.795 C 352.400 360.578,352.630 360.400,352.911 360.400 C 353.548 360.400,356.000 358.196,356.000 357.623 C 356.000 357.390,356.270 357.200,356.600 357.200 C 356.930 357.200,357.200 356.949,357.200 356.643 C 357.200 356.336,357.470 355.982,357.800 355.855 C 358.130 355.729,358.400 355.169,358.400 354.613 C 358.400 353.979,358.625 353.600,359.000 353.600 C 359.373 353.600,359.600 353.222,359.600 352.600 C 359.600 352.050,359.780 351.600,360.000 351.600 C 360.220 351.600,360.400 351.079,360.400 350.443 C 360.400 349.783,360.658 349.187,361.000 349.055 C 361.652 348.805,361.922 341.600,361.280 341.600 C 360.664 341.600,360.000 342.568,360.000 343.468 C 360.000 347.415,350.090 358.800,346.655 358.800 C 346.383 358.800,345.989 358.970,345.780 359.177 C 345.387 359.567,343.123 360.205,340.000 360.806 C 337.655 361.257,66.211 361.266,62.800 360.815 C 59.992 360.444,57.184 359.791,56.086 359.254 C 55.709 359.069,54.680 358.583,53.800 358.174 C 52.273 357.463,47.850 354.170,46.994 353.105 C 44.624 350.157,43.648 348.756,43.022 347.400 C 42.615 346.520,42.131 345.491,41.946 345.113 C 41.761 344.735,41.421 343.587,41.191 342.562 C 40.238 338.310,39.689 338.783,39.627 343.910 " stroke="none" fill="#5c3c34" fill-rule="evenodd"></path><path id="path4" d="M132.851 73.338 C 132.532 73.723,132.375 83.659,132.302 108.238 L 132.200 142.600 122.300 142.707 L 112.400 142.814 112.345 141.707 C 112.315 141.098,112.180 136.190,112.045 130.800 L 111.800 121.000 90.300 120.897 L 68.800 120.793 68.800 108.677 C 68.800 99.786,68.672 96.432,68.320 96.080 C 67.636 95.396,46.764 95.396,46.080 96.080 C 45.728 96.432,45.600 99.787,45.600 108.680 L 45.600 120.800 42.600 120.800 C 40.786 120.800,39.600 120.965,39.600 121.217 C 39.600 121.480,40.742 121.591,42.700 121.517 L 45.800 121.400 45.906 108.900 L 46.011 96.400 57.200 96.400 L 68.389 96.400 68.494 108.900 L 68.600 121.400 90.093 121.503 L 111.587 121.607 111.693 132.303 L 111.800 143.000 122.200 143.000 L 132.600 143.000 132.850 140.200 C 132.988 138.660,133.123 123.045,133.150 105.500 L 133.200 73.600 144.197 73.600 L 155.194 73.600 155.297 97.500 L 155.400 121.400 165.000 121.513 C 170.280 121.575,175.005 121.526,175.500 121.405 L 176.400 121.185 176.400 110.392 L 176.400 99.600 187.400 99.600 L 198.400 99.600 198.400 120.920 C 198.400 136.969,198.519 142.359,198.880 142.720 C 199.553 143.393,220.225 143.407,220.640 142.735 C 220.798 142.479,221.014 137.349,221.119 131.335 L 221.310 120.400 231.649 120.400 L 241.988 120.400 242.094 131.700 L 242.200 143.000 253.200 143.000 L 264.200 143.000 264.306 131.707 L 264.412 120.414 274.506 120.307 L 284.600 120.200 284.706 108.900 L 284.812 97.600 296.000 97.600 L 307.188 97.600 307.294 108.900 L 307.400 120.200 328.600 120.200 L 349.800 120.200 349.906 108.900 L 350.012 97.600 355.806 97.600 C 359.402 97.600,361.600 97.448,361.600 97.200 C 361.600 96.458,350.130 96.685,349.843 97.433 C 349.709 97.781,349.600 102.911,349.600 108.833 L 349.600 119.600 328.600 119.600 L 307.600 119.600 307.600 108.833 C 307.600 102.911,307.491 97.781,307.357 97.433 C 306.989 96.473,285.011 96.473,284.643 97.433 C 284.509 97.781,284.400 102.908,284.400 108.826 L 284.400 119.586 274.300 119.693 L 264.200 119.800 263.953 130.600 C 263.817 136.540,263.682 141.718,263.653 142.107 C 263.604 142.766,262.894 142.806,253.100 142.707 L 242.600 142.600 242.400 131.200 L 242.200 119.800 231.754 119.693 C 223.377 119.608,221.220 119.694,220.861 120.127 C 220.561 120.489,220.378 124.277,220.307 131.633 L 220.200 142.600 209.800 142.600 L 199.400 142.600 199.296 121.437 C 199.223 106.471,199.061 100.114,198.742 99.730 C 198.379 99.292,196.159 99.208,187.246 99.294 L 176.200 99.400 175.955 109.200 C 175.820 114.590,175.685 119.405,175.655 119.900 L 175.600 120.800 165.600 120.800 L 155.600 120.800 155.600 97.433 C 155.600 84.581,155.491 73.781,155.357 73.433 C 155.021 72.557,133.575 72.467,132.851 73.338 " stroke="none" fill="#646c50" fill-rule="evenodd"></path></g></svg>