<svg xmlns="http://www.w3.org/2000/svg" width="24" height="24" fill="url(#ebyssSteamGradient)" viewBox="0 -960 960 960"><defs><linearGradient id="ebyssSteamGradient" x1="0%" x2="100%" y1="0%" y2="100%"><stop offset="0%" stop-color="#9be7ff"/><stop offset="38%" stop-color="#57c7f4"/><stop offset="72%" stop-color="#2c91d0"/><stop offset="100%" stop-color="#1b6ad9"/></linearGradient></defs><path d="M609-389q-29-29-29-71t29-71 71-29 71 29 29 71-29 71-71 29-71-29m-89 229q-17 0-28.5-11.5T480-200v-16q0-24 12.5-44.5T528-290q36-15 74.5-22.5T680-320t77.5 7.5T832-290q23 9 35.5 29.5T880-216v16q0 17-11.5 28.5T840-160zM287-527q-47-47-47-113t47-113 113-47 113 47 47 113-47 113-113 47-113-47M80-272q0-34 17-62.5t47-43.5q60-30 124.5-46T400-440q35 0 70 6t70 14l-68 68q-25 25-48.5 51T400-240v39q0 12 4.5 22.5T419-160H160q-33 0-56.5-23.5T80-240z"/></svg>