<svg xmlns="http://www.w3.org/2000/svg" width="24" height="24" fill="url(#steamGradient)" shape-rendering="geometricPrecision" viewBox="0 -960 960 960"><defs><linearGradient id="steamGradient" x1="0%" x2="100%" y1="0%" y2="100%"><stop offset="0%" stop-color="#bdebff"/><stop offset="42%" stop-color="#65bceb"/><stop offset="100%" stop-color="#3f86b7"/></linearGradient></defs><path d="M200-120q-17 0-28.5-11.5T160-160t11.5-28.5T200-200h560q17 0 28.5 11.5T800-160t-11.5 28.5T760-120zm520-520h80v-120h-80zM320-280q-66 0-113-47t-47-113v-311q0-37 26-63t63-26h111v96l-72 58q-2 2-8 16v170q0 8 6 14t14 6h160q8 0 14-6t6-14v-170q0-2-8-16l-72-58v-96h400q33 0 56.5 23.5T880-760v120q0 33-23.5 56.5T800-560h-80v120q0 66-47 113t-113 47z"/></svg>