<?xml version="1.0" standalone="no"?>
<!DOCTYPE svg PUBLIC "-//W3C//DTD SVG 1.1//EN" "http://www.w3.org/Graphics/SVG/1.1/DTD/svg11.dtd" >
<svg xmlns="http://www.w3.org/2000/svg" xmlns:xlink="http://www.w3.org/1999/xlink" version="1.1" viewBox="-10 -75 1003 1000">
   <path fill="#c6d0f5"
d="M224 332q-7 24 -29 34t-44 2q-23 -8 -33 -30t-2 -44q30 -86 95 -150q78 -78 182 -106t208 0t181 106l32 30v-62q1 -24 17 -41t40 -17t41 17t17 41v202q0 24 -17 41t-41 17v0h-201q-24 0 -41 -17t-17 -41t17 -41t41 -17h61l-30 -32q-85 -84 -204 -84t-204 84
q-47 48 -69 108zM105 488h9q1 -2 4 -2h4h201q24 0 41 17t17 41t-17 40t-41 18h-62l31 30q85 86 204 86t204 -86q48 -48 69 -106q8 -24 30 -34t43 -2q23 8 33 30t2 44q-30 86 -95 150q-119 118 -286 118t-285 -118l-32 -32v64q0 24 -16 40t-41 18q-24 -2 -41 -18t-17 -40
v-202q0 -6 1 -8q0 -6 1 -8q5 -14 15 -24q10 -12 24 -16z" />
</svg>
