<?xml version="1.0" standalone="no"?>
<!DOCTYPE svg PUBLIC "-//W3C//DTD SVG 1.1//EN" "http://www.w3.org/Graphics/SVG/1.1/DTD/svg11.dtd" >
<svg xmlns="http://www.w3.org/2000/svg" xmlns:xlink="http://www.w3.org/1999/xlink" version="1.1" viewBox="-10 -75 1110 1000">
   <path fill="#c6d0f5"
d="M1013 449l-202 203q-77 76 -185 76t-184 -76q-67 -67 -75 -163t48 -173l2 -3q13 -19 37 -23t43 10t23 37t-10 43l-2 3q-30 45 -26 97t42 90q42 43 102 43t103 -43l203 -202q43 -43 43 -103t-43 -103q-36 -38 -90 -42t-97 27l-3 2q-20 14 -44 10t-37 -24q-14 -20 -10 -43
t24 -37l2 -2q78 -55 173 -47t163 75q77 77 77 184t-77 184zM77 407l202 -202q77 -77 185 -77t184 77q67 67 75 163t-48 173l-2 3q-13 19 -37 23t-43 -10q-19 -13 -23 -37t10 -44l2 -2q30 -44 26 -97t-42 -91q-43 -43 -103 -43t-103 43l-202 203q-43 43 -43 103t43 102
q38 38 90 42t97 -26l3 -2q20 -14 44 -10t37 23q14 19 10 43t-24 38l-3 2q-78 56 -172 48t-163 -76q-77 -76 -77 -184t77 -185z" />
</svg>
