<?xml version="1.0" standalone="no"?>
<!DOCTYPE svg PUBLIC "-//W3C//DTD SVG 1.1//EN" "http://www.w3.org/Graphics/SVG/1.1/DTD/svg11.dtd" >
<svg xmlns="http://www.w3.org/2000/svg" xmlns:xlink="http://www.w3.org/1999/xlink" version="1.1" viewBox="-10 -75 1003 1000">
   <path fill="#cad3f5"
d="M743 376l-350 350v118h-209q-35 0 -59.5 -24t-24.5 -58v-668q0 -32 24.5 -57t59.5 -25h41v292l105 -62l104 62v-292h250q35 0 59.5 25t24.5 57v264q-15 8 -25 18zM475 760v84h86l256 -254l-86 -86zM885 490l-55 -56q-6 -6 -14.5 -6t-14.5 6l-41 42l86 86l39 -42
q8 -6 8 -14t-8 -16z" />
</svg>
