<?xml version="1.0" standalone="no"?>
<!DOCTYPE svg PUBLIC "-//W3C//DTD SVG 1.1//EN" "http://www.w3.org/Graphics/SVG/1.1/DTD/svg11.dtd" >
<svg xmlns="http://www.w3.org/2000/svg" xmlns:xlink="http://www.w3.org/1999/xlink" version="1.1" viewBox="-10 -75 1003 1000">
   <path fill="#cdd6f4"
d="M497 -33q72 1 122 51t51 122v6q1 20 -15 36t-37 16h-243q-20 0 -36 -16t-16 -36v-6q0 -72 51 -122t123 -51zM110 157q17 -17 41 -17t40 17l116 115q1 1 3 4q42 -21 86 -21h201q44 0 86 21l4 -4l115 -115q17 -17 41 -17t41 17t17 41t-17 40l-116 116q-1 0 -2 1l-2 2
q17 34 20 71h116q24 0 41 17t17 41t-17 41t-41 17h-115q0 65 -28 124q6 3 11 8l115 116q17 16 17 40t-17 41q-16 17 -40 17t-41 -17l-114 -114q-71 63 -163 72v-432q0 -12 -8 -20t-21 -8q-12 0 -20 8t-8 20v432q-92 -9 -163 -72l-114 114q-17 17 -41 17t-41 -17t-17 -41
t17 -41l116 -115q3 -3 11 -9q-28 -58 -28 -123h-115q-24 0 -41 -17t-17 -41t17 -41t41 -17h116q3 -37 20 -71q-1 -1 -4 -3l-116 -116q-17 -16 -17 -40t17 -41h1z" />
</svg>
