<?xml version="1.0" standalone="no"?>
<!DOCTYPE svg PUBLIC "-//W3C//DTD SVG 1.1//EN" "http://www.w3.org/Graphics/SVG/1.1/DTD/svg11.dtd" >
<svg xmlns="http://www.w3.org/2000/svg" xmlns:xlink="http://www.w3.org/1999/xlink" version="1.1" viewBox="-10 -75 1175 1000">
   <path fill="#cdd6f4"
d="M531 -31q15 7 18 22l25 152l153 26q16 3 22 17q7 15 -3 28l-70 99h-12q-62 0 -115 31v-2q0 -72 -50 -122t-123 -51q-73 1 -123 51t-50 122t50 122t123 51q14 0 42 -6q-49 25 -83 71t-43 101l-44 30q-13 10 -28 3q-14 -6 -17 -22l-25 -152l-153 -26q-16 -3 -22 -17
q-7 -15 3 -28l90 -127l-90 -128q-10 -13 -3 -28q6 -14 22 -17l153 -25l25 -153q3 -15 18 -22q14 -6 27 3l128 89l128 -89q13 -9 27 -3zM261 342q0 -48 34 -82t81 -34t81 34t34 82t-34 82t-81 33q-47 1 -81 -33t-34 -82zM1155 745q0 61 -42 103t-103 42h-490q-73 0 -123 -50
t-50 -123q0 -64 41 -112t103 -59v-2q0 -72 50 -122t123 -51q47 1 87 23t62 60q37 -26 82 -26q60 0 102 42t42 103q0 16 -3 31q51 8 85 48t34 93z" />
</svg>
