<?xml version="1.0" standalone="no"?>
<!DOCTYPE svg PUBLIC "-//W3C//DTD SVG 1.1//EN" "http://www.w3.org/Graphics/SVG/1.1/DTD/svg11.dtd" >
<svg xmlns="http://www.w3.org/2000/svg" xmlns:xlink="http://www.w3.org/1999/xlink" version="1.1" viewBox="-10 -75 1003 1000">
   <path fill="#cdd6f4"
d="M872 428q0 -155 -110 -265t-265 -110t-265 110t-110 265t110 265t265 110t265 -110t110 -265zM35 428q0 -191 136 -326t326 -135q191 0 326 135t135 326q0 190 -135 326t-326 136q-190 0 -326 -136t-136 -326zM374 232q21 -12 44 1l260 159q21 13 21 36q0 24 -21 37
l-260 159q-22 14 -44 1t-22 -38v-317q0 -25 22 -38z" />
</svg>
