<?xml version="1.0" encoding="UTF-8" standalone="no"?>
<svg
   width="14.002911"
   height="14"
   viewBox="0 0 14.002911 14"
   fill="none"
   version="1.1"
   id="svg1"
   xmlns="http://www.w3.org/2000/svg"
   xmlns:svg="http://www.w3.org/2000/svg">
  <defs
     id="defs1" />
  <path
     d="m 2.6503601,6.14645 c 0.19526,-0.19527 0.51184,-0.19527 0.7071,0 l 2,1.99995 c 0.09377,0.0938 0.14645,0.221 0.14645,0.3536 0,0.1326 -0.05268,0.2598 -0.14645,0.3536 l -2,2 c -0.19526,0.1952 -0.51184,0.1952 -0.7071,0 -0.19527,-0.1953 -0.19527,-0.5119 0,-0.7072 L 4.2968001,8.5 2.6503601,6.85355 c -0.19527,-0.19526 -0.19527,-0.51184 0,-0.7071 z M 11.50391,10 H 6.5039101 c -0.27614,0 -0.5,0.2239 -0.5,0.5 0,0.2761 0.22386,0.5 0.5,0.5 H 11.50391 c 0.2761,0 0.5,-0.2239 0.5,-0.5 0,-0.2761 -0.2239,-0.5 -0.5,-0.5 z M 6.4697266e-8,2.5 C 6.4697266e-8,1.11929 1.1192901,0 2.5000001,0 H 11.50001 c 1.3807,0 2.5,1.11929 2.5,2.5 V 3 h 0.0029 v 1 h -0.0029 v 7.5 c 0,1.3807 -1.1193,2.5 -2.5,2.5 H 2.5000001 C 1.1192901,14 6.4697265e-8,12.8807 6.4697265e-8,11.5 Z M 13.00001,3 V 2.5 c 0,-0.82843 -0.6716,-1.5 -1.5,-1.5 H 2.5000001 c -0.82842,0 -1.5,0.67157 -1.5,1.5 V 3 Z M 1.0000001,4 v 7.5 c 0,0.8284 0.67158,1.5 1.5,1.5 H 11.50001 c 0.8284,0 1.5,-0.6716 1.5,-1.5 V 4 Z"
     fill="#212121"
     id="path1"
     style="fill:#ffffff;fill-opacity:1" />
</svg>
