<?xml version="1.0" encoding="utf-8"?>
<svg viewBox="0 0 24 24" fill="none" xmlns="http://www.w3.org/2000/svg">
  <path d="M 12 2 C 17.523 2 22 6.477 22 12 C 22 17.523 17.523 22 12 22 C 10.404 22.002 8.831 21.621 7.413 20.888 L 3.587 21.955 C 2.66 22.214 1.801 21.372 2.04 20.44 C 2.042 20.432 2.045 20.423 2.047 20.415 L 3.115 16.592 C 2.38 15.173 1.998 13.598 2 12 C 2 6.477 6.477 2 12 2 Z M 12 3.5 C 7.306 3.5 3.5 7.306 3.5 12 C 3.5 13.47 3.873 14.883 4.573 16.137 L 4.723 16.407 L 3.611 20.391 L 7.598 19.279 L 7.868 19.429 C 13.587 22.609 20.603 18.405 20.497 11.863 C 20.422 7.223 16.64 3.501 12 3.5 Z" fill="#ffffff"/>
  <path d="M 12 15.495 C 12.77 15.495 13.251 16.329 12.866 16.995 C 12.688 17.305 12.357 17.495 12 17.495 C 11.23 17.495 10.749 16.662 11.134 15.995 C 11.313 15.686 11.643 15.495 12 15.495 Z M 12 6.745 C 13.519 6.745 14.75 7.976 14.75 9.495 C 14.75 10.505 14.453 11.069 13.699 11.854 L 13.53 12.025 C 12.908 12.647 12.75 12.911 12.75 13.495 C 12.75 14.073 12.125 14.433 11.625 14.145 C 11.393 14.011 11.25 13.763 11.25 13.495 C 11.25 12.485 11.547 11.921 12.301 11.136 L 12.47 10.965 C 13.092 10.343 13.25 10.079 13.25 9.495 C 13.247 8.533 12.203 7.935 11.372 8.419 C 11.027 8.619 10.799 8.971 10.757 9.367 L 10.75 9.495 C 10.75 10.073 10.125 10.433 9.625 10.145 C 9.393 10.011 9.25 9.763 9.25 9.495 C 9.25 7.976 10.481 6.745 12 6.745 Z" style="fill: rgb(96, 205, 255);"/>
</svg>