<?xml version="1.0" encoding="utf-8"?>
<svg viewBox="0 0 24 24" fill="none" xmlns="http://www.w3.org/2000/svg">
  <path d="M 12 8.25 C 14.887 8.25 16.691 11.375 15.248 13.875 C 14.578 15.035 13.34 15.75 12 15.75 C 9.113 15.75 7.309 12.625 8.752 10.125 C 9.422 8.965 10.66 8.25 12 8.25 Z M 12 9.75 C 10.268 9.75 9.185 11.625 10.051 13.125 C 10.453 13.821 11.196 14.25 12 14.25 C 13.732 14.25 14.815 12.375 13.949 10.875 C 13.547 10.179 12.804 9.75 12 9.75 Z" style="fill: rgb(96, 205, 255);"/>
  <path d="M 12.01 2.25 C 12.744 2.258 13.475 2.343 14.192 2.503 C 14.505 2.573 14.739 2.834 14.774 3.152 L 14.944 4.679 C 15.048 5.605 16.017 6.166 16.871 5.795 L 18.272 5.18 C 18.564 5.052 18.905 5.122 19.122 5.354 C 20.134 6.435 20.888 7.732 21.326 9.146 C 21.421 9.451 21.312 9.782 21.055 9.971 L 19.813 10.887 C 19.062 11.439 19.062 12.561 19.813 13.113 L 21.056 14.028 C 21.314 14.218 21.423 14.549 21.328 14.854 C 20.89 16.269 20.136 17.565 19.124 18.646 C 18.907 18.878 18.568 18.948 18.276 18.821 L 16.869 18.204 C 16.016 17.83 15.045 18.392 14.943 19.318 L 14.774 20.844 C 14.74 21.159 14.511 21.418 14.202 21.491 C 12.754 21.836 11.245 21.836 9.796 21.491 C 9.488 21.418 9.259 21.159 9.224 20.844 L 9.056 19.32 C 8.951 18.397 7.982 17.838 7.13 18.21 L 5.724 18.826 C 5.433 18.954 5.093 18.884 4.875 18.651 C 3.863 17.569 3.11 16.271 2.671 14.855 C 2.577 14.55 2.686 14.219 2.943 14.029 L 4.186 13.113 C 4.939 12.562 4.939 11.439 4.186 10.887 L 2.943 9.973 C 2.687 9.784 2.578 9.452 2.672 9.147 C 3.111 7.733 3.865 6.436 4.876 5.355 C 5.094 5.123 5.435 5.053 5.726 5.181 L 7.126 5.796 C 7.982 6.167 8.953 5.605 9.056 4.678 L 9.226 3.152 C 9.262 2.833 9.496 2.572 9.809 2.502 C 10.526 2.343 11.259 2.259 12.01 2.25 Z M 12.01 3.75 C 11.557 3.756 11.104 3.795 10.656 3.867 L 10.547 4.844 C 10.333 6.778 8.306 7.949 6.523 7.17 L 5.625 6.776 C 5.053 7.47 4.598 8.253 4.277 9.093 L 5.075 9.68 C 6.642 10.832 6.642 13.172 5.075 14.323 L 4.276 14.911 C 4.596 15.753 5.052 16.537 5.624 17.233 L 6.529 16.836 C 8.307 16.06 10.329 17.227 10.546 19.154 L 10.656 20.138 C 11.545 20.288 12.454 20.288 13.343 20.138 L 13.453 19.154 C 13.668 17.224 15.692 16.054 17.471 16.832 L 18.376 17.228 C 18.948 16.534 19.403 15.751 19.723 14.91 L 18.925 14.322 C 17.359 13.171 17.359 10.831 18.925 9.679 L 19.721 9.092 C 19.401 8.252 18.946 7.469 18.373 6.775 L 17.477 7.168 C 15.696 7.948 13.669 6.777 13.454 4.844 L 13.344 3.868 C 12.904 3.796 12.458 3.757 12.011 3.751 L 12.01 3.75 Z" fill="#ffffff"/>
</svg>