<?xml version="1.0" standalone="no"?>
<!DOCTYPE svg PUBLIC "-//W3C//DTD SVG 1.1//EN" "http://www.w3.org/Graphics/SVG/1.1/DTD/svg11.dtd" >
<svg xmlns="http://www.w3.org/2000/svg" xmlns:xlink="http://www.w3.org/1999/xlink" version="1.1" viewBox="-10 -75 1174 1000">
   <path fill="#4c4f69"
d="M173 198q0 -95 68 -163t163 -68t163 68t68 163q0 94 -68 162t-163 68t-163 -68t-68 -162zM0 836q0 -134 94 -228t227 -93h165q134 0 228 94t94 227q0 22 -16 38t-38 16h-700q-22 0 -38 -16t-16 -38zM1098 890h-248q15 -25 15 -58v-14q0 -80 -33 -152t-92 -122h12h111
q121 0 206 84t85 206q0 24 -16 40t-40 16zM779 428q-84 0 -143 -59q56 -75 56 -171q0 -71 -33 -134q54 -40 120 -40q84 0 143 59t59 143t-59 143t-143 59z" />
</svg>
