<?xml version="1.0" standalone="no"?>
<!DOCTYPE svg PUBLIC "-//W3C//DTD SVG 1.1//EN" "http://www.w3.org/Graphics/SVG/1.1/DTD/svg11.dtd" >
<svg xmlns="http://www.w3.org/2000/svg" xmlns:xlink="http://www.w3.org/1999/xlink" version="1.1" viewBox="-10 -75 1003 1000">
   <path fill="#4c4f69"
d="M612 -33h288q24 1 41 17t17 40v289q0 24 -17 41t-41 17q-25 0 -41 -17t-16 -41v-149l-363 363q-17 17 -41 17t-41 -17t-17 -41t17 -41l363 -363h-149q-24 0 -41 -17t-17 -41t17 -40t41 -17zM179 24h202q24 0 41 17t17 41t-17 41t-41 17h-202q-12 0 -20 8t-9 21v577
q1 12 9 20t20 8h577q13 0 21 -8t8 -20v-202q0 -24 17 -41t41 -17t40 17t17 41v202q0 60 -42 102t-102 42h-577q-60 0 -102 -42t-42 -102v-577q0 -61 42 -103t102 -42z" />
</svg>
