<?xml version="1.0" standalone="no"?>
<!DOCTYPE svg PUBLIC "-//W3C//DTD SVG 1.1//EN" "http://www.w3.org/Graphics/SVG/1.1/DTD/svg11.dtd" >
<svg xmlns="http://www.w3.org/2000/svg" xmlns:xlink="http://www.w3.org/1999/xlink" version="1.1" viewBox="-10 -75 1003 1000">
   <path fill="#4c4f69"
d="M707 218q-33 0 -59 -21t-34 -53q-42 6 -70 38t-28 74v0q126 4 225 66q38 -28 82 -28q56 -2 96 38t39 96q0 40 -21 72t-56 50q-3 116 -115 199t-269 83q-156 0 -268 -82t-116 -200q-34 -16 -56 -49t-22 -73q0 -56 40 -96t95 -38q46 0 82 28q95 -60 223 -66v0
q0 -60 40 -104t99 -50q7 -34 33 -56t60 -22q40 0 68 28t29 70q-1 40 -29 68t-68 28zM319 428q-28 0 -50 25t-23 61q-1 34 19 51t50 17q65 0 68 -66q2 -36 -17 -62t-47 -26zM747 514q-1 -38 -22 -62t-50 -24q-30 -2 -48 24t-17 64q3 66 68 66q31 0 51 -17t18 -51zM639 642
q2 -4 -1 -9t-8 -7q-61 -6 -133 -6t-133 6q-5 2 -8 7t-1 9q18 42 56 68t86 26t86 -26t56 -68z" />
</svg>
