<?xml version="1.0" standalone="no"?>
<!DOCTYPE svg PUBLIC "-//W3C//DTD SVG 1.1//EN" "http://www.w3.org/Graphics/SVG/1.1/DTD/svg11.dtd" >
<svg xmlns="http://www.w3.org/2000/svg" xmlns:xlink="http://www.w3.org/1999/xlink" version="1.1" viewBox="-10 -75 1003 1000">
   <path fill="currentColor"
d="M496 252l-54 4q-46 -55 -96 -92q-76 -59 -140 -59l-12 22q-14 29 -20 61q-10 45 -4 91q6 57 34 114l-6 9q-18 25 -24 39q-10 20 -12 45l-80 14l10 41l72 -12l6 30l-64 39l20 37l60 -37q34 74 120 115q82 39 191 39t191 -39q84 -41 120 -115l60 37l20 -37l-66 -39l6 -30
l72 12l10 -41l-80 -14q-2 -25 -12 -45q-6 -14 -22 -39l-6 -9q26 -57 32 -114q6 -47 -4 -91q-6 -31 -18 -61l-12 -22q-64 0 -142 59q-50 37 -94 92zM372 377q18 0 29 11.5t11 29.5t-11 29.5t-29 11.5t-30 -11.5t-12 -29.5t12 -29.5t30 -11.5zM622 377q18 0 29 11.5t11 29.5
t-11 29.5t-29 11.5t-30 -11.5t-12 -29.5t12 -29.5t30 -11.5zM456 502h82l-30 57q8 21 24 33.5t36 12.5q28 0 46 -18.5t18 -43.5h20q0 35 -24 59.5t-60 24.5q-20 0 -40 -11.5t-32 -31.5v0q-12 20 -31 31.5t-41 11.5q-34 0 -59 -24.5t-25 -59.5h22q0 25 17 43.5t45 18.5
q22 0 37 -12.5t23 -33.5z" />
</svg>
