<?xml version="1.0" standalone="no"?>
<!DOCTYPE svg PUBLIC "-//W3C//DTD SVG 1.1//EN" "http://www.w3.org/Graphics/SVG/1.1/DTD/svg11.dtd" >
<svg xmlns="http://www.w3.org/2000/svg" xmlns:xlink="http://www.w3.org/1999/xlink" version="1.1" viewBox="-10 -75 1003 1000">
   <path fill="currentColor"
d="M167 -30q-35 0 -59.5 25t-24.5 57v668q0 34 24.5 58t59.5 24h279q-29 -58 -29 -124q0 -78 39 -146t106.5 -107t145.5 -39q21 0 43 4v-170l-250 -250h-334zM458 32l230 230h-230v-230zM667 470q-10 0 -12 8l-8 54q-18 10 -35 20l-50 -20q-10 0 -14 4l-41 74q-4 8 2 12
l45 36q-2 10 -2 21t2 21l-45 32q-6 6 -2 14l41 72q2 6 14 6l50 -22q20 14 35 20l8 56q2 8 12 8h84q8 0 10 -8l8 -56q16 -6 35 -20q1 0 51 22q12 0 13 -6l41 -72q4 -8 -2 -14q0 2 -45 -32l2 -22q0 -10 -2 -20l45 -36q6 -6 2 -12l-41 -74q-1 -4 -13 -4l-51 20q-21 -14 -35 -20
l-8 -54q-2 -8 -10 -8h-84zM708 616q27 0 45 18t18 44t-18 44t-44 18t-44.5 -18t-18.5 -44t18.5 -44t43.5 -18z" />
</svg>
