<?xml version="1.0" standalone="no"?>
<!DOCTYPE svg PUBLIC "-//W3C//DTD SVG 1.1//EN" "http://www.w3.org/Graphics/SVG/1.1/DTD/svg11.dtd" >
<svg xmlns="http://www.w3.org/2000/svg" xmlns:xlink="http://www.w3.org/1999/xlink" version="1.1" viewBox="-10 -75 1003 1000">
   <path fill="currentColor"
d="M338 112q-19 0 -31 12t-12 30v548q0 22 -8 44h541q18 0 31 -13t13 -31v-548q0 -18 -13 -30t-31 -12h-490zM165 832q-54 0 -92 -38t-38 -92v-532q0 -18 12 -31t31 -13q18 0 31 13t13 31v532q1 18 13 31t30 13t30 -13t13 -31v-548q0 -54 38 -92t92 -38h490q54 0 92 38
t38 92v548q0 54 -38 92t-92 38h-663zM352 212q0 -18 13 -30t31 -12h173q18 0 30 12t13 30v144q-1 18 -13 30t-30 14h-173q-18 -2 -31 -14t-13 -30v-144zM713 170h58q18 0 30 12t13 30q-1 18 -13 30t-30 14h-58q-18 -2 -30 -14t-13 -30q1 -18 13 -30t30 -12zM713 314h58
q18 0 30 12t13 30q-1 18 -13 30t-30 14h-58q-18 -2 -30 -14t-13 -30q1 -18 13 -30t30 -12zM396 458h375q18 0 30 12t13 30q-1 18 -13 31t-30 13h-375q-18 0 -31 -13t-13 -31t13 -30t31 -12zM396 602h375q18 0 30 13t13 31q-1 18 -13 30t-30 12h-375q-18 0 -31 -12t-13 -30
t13 -31t31 -13z" />
</svg>
