<?xml version="1.0" standalone="no"?>
<!DOCTYPE svg PUBLIC "-//W3C//DTD SVG 1.1//EN" "http://www.w3.org/Graphics/SVG/1.1/DTD/svg11.dtd" >
<svg xmlns="http://www.w3.org/2000/svg" xmlns:xlink="http://www.w3.org/1999/xlink" version="1.1" viewBox="-10 -75 1003 1000">
   <path fill="currentColor"
d="M929 267q9 25 -11 44l-79 72q4 30 4 45q0 16 -4 46l79 71q20 19 11 44q-14 36 -28 62l-9 15q-17 29 -40 56q-17 20 -44 12l-100 -31q-30 23 -80 45l-22 103q-7 27 -33 32q-44 7 -77 7q-32 0 -76 -7q-26 -5 -33 -32l-23 -103q-48 -21 -79 -45l-100 32q-26 8 -44 -13
q-23 -27 -40 -56l-9 -14q-14 -26 -28 -62q-10 -26 11 -45l78 -71q-3 -23 -3 -46q0 -22 3 -45l-78 -72q-20 -19 -11 -44q14 -36 28 -62l9 -14q19 -32 40 -57q17 -20 44 -12l100 32q32 -26 80 -46l22 -103q7 -27 33 -32q38 -6 77 -6q38 0 76 6q26 5 33 32l23 103q46 20 79 46
l100 -32q27 -8 44 12q21 25 40 57l9 14q14 26 28 62zM497 573q60 -1 102 -43t42 -102t-42 -102t-102 -42t-102 42t-43 102q1 60 43 102t102 43z" />
</svg>
