<svg xmlns="http://www.w3.org/2000/svg" width="24" height="24" fill="url(#steamGradient)" shape-rendering="geometricPrecision" viewBox="0 -960 960 960"><defs><linearGradient id="steamGradient" x1="0%" x2="100%" y1="0%" y2="100%"><stop offset="0%" stop-color="#d5f3ff"/><stop offset="38%" stop-color="#79c9f2"/><stop offset="72%" stop-color="#4d9dca"/><stop offset="100%" stop-color="#356f99"/></linearGradient></defs><path d="M440-91 160-252q-19-11-29.5-29T120-321v-318q0-22 10.5-40t29.5-29l280-161q19-11 40-11t40 11l280 161q19 11 29.5 29t10.5 40v318q0 22-10.5 40T800-252L520-91q-19 11-40 11t-40-11m0-366v274l40 23 40-23v-274l240-139v-42l-43-25-237 137-237-137-43 25v42z"/></svg>